<?xml version="1.0" encoding="UTF-8"?>
<svg id="Layer_1" data-name="Layer 1" xmlns="http://www.w3.org/2000/svg" viewBox="0 0 1041.98 403.13">
  <defs>
    <style>
      .cls-1 {
        fill: #82c787;
      }
    </style>
  </defs>
  <g>
    <path class="cls-1" d="M434.5,216.99c-11.2,0-19.08-2.34-23.65-7.03-4.57-4.68-6.85-11.99-6.85-21.93v-72.82h61.85l3.6-32.38h-66.55l1.44-46.43-40.78,4.28.16,42.15h-26.37v32.38h25.87v78.47c0,13.02,1.88,23.9,5.65,32.64,3.77,8.74,9.99,15.28,18.68,19.62,8.68,4.34,20.33,6.51,34.95,6.51,8.79,0,16.99-.77,24.59-2.31,7.6-1.54,14.36-3.74,20.3-6.6l3.6-34.44c-5.14,2.4-10.82,4.31-17.05,5.74-6.23,1.43-12.71,2.14-19.45,2.14Z"/>
    <path class="cls-1" d="M625.8,95.85c-5.77-6.05-13.42-10.74-22.96-14.05-9.54-3.31-21.28-4.97-35.21-4.97-9.6,0-18.48.8-26.64,2.4-8.17,1.6-15.59,3.66-22.27,6.17-6.68,2.51-12.54,5.08-17.56,7.71l-3.6,32.9c8.68-4.11,18.3-7.77,28.87-10.97,10.56-3.2,21.9-4.8,34.01-4.8,14.5,0,25.02,2.74,31.53,8.22,6.05,5.1,9.29,12.86,9.71,23.29l-47.07,6.18c-22.27,2.74-38.64,8.03-49.09,15.85-10.45,7.83-15.68,19.96-15.68,36.41v4.63c0,15.19,4.54,26.99,13.62,35.38,9.08,8.4,22.24,12.59,39.49,12.59,12.56,0,22.73-1.83,30.5-5.48,7.77-3.65,13.82-8.48,18.16-14.48,4.34-6,7.42-12.59,9.25-19.79h1.84l-1.33,35.64h40.95v-103.32c0-10.17-1.31-19.45-3.94-27.84-2.63-8.4-6.83-15.62-12.59-21.67ZM594.27,205.43c-3.94,4.4-8.97,7.94-15.08,10.62-6.11,2.69-13.39,4.03-21.85,4.03-9.14,0-15.93-1.8-20.39-5.4-4.45-3.6-6.68-8.77-6.68-15.51v-1.71c0-6.97,2.23-12.14,6.68-15.51,4.45-3.37,12.11-5.74,22.96-7.11l41.81-5.54v23.66c-1.57,4.52-4.05,8.68-7.45,12.47Z"/>
    <rect class="cls-1" x="681.06" y="22.18" width="41.29" height="226.51"/>
    <rect class="cls-1" x="766.21" y="22.18" width="41.29" height="226.51"/>
    <path class="cls-1" d="M961.89,81.12c-14.54,44.89-29.07,89.77-43.6,134.66-13.22-44.89-26.45-89.77-39.67-134.66h-45.06c15.23,46.27,30.45,92.54,45.68,138.81.57,1.86,1.48,4.57,2.84,7.74,3.6,8.37,7.44,17.3,15.52,20.26,1.64.6,4.26,1.25,7.89.87-6.72,19.56-13.45,39.12-20.17,58.68h41.81l77.28-226.34h-42.49Z"/>
    <path class="cls-1" d="M283.12,182.68c10.2,0,18.46-8.27,18.46-18.46s-8.27-18.46-18.46-18.46h-122.2l-20.23-34.29h142.44c10.2,0,18.46-8.27,18.46-18.46s-8.27-18.46-18.46-18.46H118.89l-25.42-43.07c-5.18-8.78-16.5-11.7-25.29-6.52-8.78,5.18-11.7,16.5-6.52,25.29l14.34,24.31h-19.95c-10.2,0-18.46,8.27-18.46,18.46s8.27,18.46,18.46,18.46h41.74l20.23,34.29h-61.97c-10.2,0-18.46,8.27-18.46,18.46s8.27,18.46,18.46,18.46h83.76l20.23,34.29H56.06c-10.2,0-18.46,8.27-18.46,18.46s8.27,18.46,18.46,18.46h125.78l20.23,34.29H56.06c-10.2,0-18.46,8.27-18.46,18.46s8.27,18.46,18.46,18.46h167.81l21.84,37.01c3.44,5.84,9.6,9.08,15.92,9.08,3.19,0,6.42-.83,9.37-2.56,8.78-5.18,11.7-16.5,6.52-25.29l-10.76-18.24h16.37c10.2,0,18.46-8.27,18.46-18.46s-8.27-18.46-18.46-18.46h-38.16l-20.23-34.29h58.39c10.2,0,18.46-8.27,18.46-18.46s-8.27-18.46-18.46-18.46h-80.18l-20.23-34.29h100.41Z"/>
  </g>
  <g>
    <path class="cls-1" d="M363.39,359.35v-61.62h14.55l-.63,18.9,1.2.63v42.09h-15.12ZM378.07,323.5l-3.59-10.46h3.59c1.26-5.04,3.45-9.01,6.58-11.91,3.13-2.9,7.44-4.35,12.95-4.35,1.18,0,2.27.09,3.28.28,1.01.19,1.93.39,2.77.6l.82,14.87c-1.01-.25-2.16-.47-3.47-.66-1.3-.19-2.69-.28-4.16-.28-4.58,0-8.47,1.04-11.69,3.12-3.21,2.08-5.58,5.01-7.09,8.79Z"/>
    <path class="cls-1" d="M441.76,360.92c-10.67,0-18.63-2.43-23.88-7.31-5.25-4.87-7.88-11.95-7.88-21.23v-7.81c0-9.16,2.46-16.2,7.37-21.14,4.91-4.93,12.05-7.4,21.42-7.4,6.38,0,11.7,1.1,15.94,3.31,4.24,2.2,7.43,5.32,9.58,9.36,2.14,4.03,3.21,8.86,3.21,14.49v2.02c0,1.47-.07,2.96-.22,4.47-.15,1.51-.33,2.94-.54,4.28h-13.86c.08-2.18.16-4.26.22-6.24.06-1.98.1-3.76.1-5.36,0-3.11-.54-5.75-1.61-7.94-1.07-2.18-2.66-3.84-4.76-4.98-2.1-1.13-4.79-1.7-8.06-1.7-4.75,0-8.28,1.28-10.58,3.84-2.31,2.56-3.47,6.22-3.47,10.96v11.72c0,2.06.34,3.97,1.01,5.73.67,1.76,1.75,3.29,3.24,4.57,1.49,1.28,3.5,2.28,6.02,2.99,2.52.72,5.63,1.07,9.32,1.07,4.12,0,8.01-.47,11.69-1.42,3.67-.94,7.17-2.19,10.49-3.75l-1.45,12.1c-2.86,1.6-6.26,2.89-10.21,3.87-3.95.99-8.32,1.48-13.11,1.48ZM417.88,333.96v-10.4h45.8v10.4h-45.8Z"/>
    <path class="cls-1" d="M506.09,360.92c-9.79,0-17.05-2.52-21.8-7.56-4.75-5.04-7.12-12.16-7.12-21.36v-7.12c0-9.11,2.37-16.19,7.12-21.23,4.75-5.04,12.01-7.56,21.8-7.56,2.65,0,5.11.22,7.4.66,2.29.44,4.37,1.02,6.24,1.73,1.87.71,3.5,1.49,4.88,2.33l1.26,12.79c-2.18-1.43-4.65-2.61-7.4-3.56-2.75-.94-5.95-1.42-9.61-1.42-5.63,0-9.77,1.42-12.41,4.25s-3.97,6.92-3.97,12.25v6.43c0,5.29,1.36,9.39,4.09,12.29,2.73,2.9,6.91,4.35,12.54,4.35,3.61,0,6.81-.47,9.61-1.42,2.79-.94,5.37-2.09,7.72-3.43l-1.26,12.79c-2.14,1.26-4.84,2.37-8.1,3.34-3.26.96-6.92,1.45-10.99,1.45Z"/>
    <path class="cls-1" d="M565.95,360.92c-10.67,0-18.63-2.43-23.88-7.31-5.25-4.87-7.88-11.95-7.88-21.23v-7.81c0-9.16,2.46-16.2,7.37-21.14,4.91-4.93,12.05-7.4,21.42-7.4,6.38,0,11.7,1.1,15.94,3.31,4.24,2.2,7.43,5.32,9.58,9.36,2.14,4.03,3.21,8.86,3.21,14.49v2.02c0,1.47-.07,2.96-.22,4.47-.15,1.51-.33,2.94-.54,4.28h-13.86c.08-2.18.16-4.26.22-6.24.06-1.98.1-3.76.1-5.36,0-3.11-.54-5.75-1.61-7.94-1.07-2.18-2.66-3.84-4.76-4.98-2.1-1.13-4.79-1.7-8.06-1.7-4.75,0-8.28,1.28-10.58,3.84-2.31,2.56-3.47,6.22-3.47,10.96v11.72c0,2.06.34,3.97,1.01,5.73.67,1.76,1.75,3.29,3.24,4.57,1.49,1.28,3.5,2.28,6.02,2.99,2.52.72,5.63,1.07,9.32,1.07,4.12,0,8.01-.47,11.69-1.42,3.67-.94,7.17-2.19,10.49-3.75l-1.45,12.1c-2.86,1.6-6.26,2.89-10.21,3.87-3.95.99-8.32,1.48-13.11,1.48ZM542.07,333.96v-10.4h45.8v10.4h-45.8Z"/>
    <path class="cls-1" d="M611.62,289.73c-2.94,0-5.1-.69-6.49-2.08-1.39-1.39-2.08-3.3-2.08-5.73v-.31c0-2.44.69-4.35,2.08-5.73,1.39-1.39,3.55-2.08,6.49-2.08s5.1.69,6.49,2.08c1.39,1.39,2.08,3.3,2.08,5.73v.31c0,2.48-.69,4.4-2.08,5.76-1.39,1.36-3.55,2.05-6.49,2.05ZM604.06,359.35v-61.62h15.18v61.62h-15.18Z"/>
    <path class="cls-1" d="M634.43,380.96v-83.23h15.12l-.57,15.62.25,3.4v23.88l-.13,2.77.38,17.33v20.22h-15.06ZM669.97,360.86c-3.86,0-7.17-.61-9.92-1.83-2.75-1.22-4.95-2.94-6.58-5.17s-2.83-4.79-3.59-7.69h-4.6l3.97-12.47c.13,3.15.83,5.82,2.11,8,1.28,2.18,3.07,3.82,5.36,4.91,2.29,1.09,4.92,1.64,7.91,1.64,4.58,0,8.07-1.28,10.49-3.84,2.41-2.56,3.62-6.34,3.62-11.34v-9.58c0-4.91-1.2-8.64-3.59-11.18s-5.9-3.81-10.52-3.81c-2.69,0-5.11.5-7.28,1.51-2.16,1.01-3.95,2.36-5.36,4.06-1.41,1.7-2.43,3.64-3.06,5.83l-3.47-8.82h4.22c.67-2.77,1.83-5.27,3.47-7.5,1.64-2.22,3.86-3.99,6.68-5.29,2.81-1.3,6.38-1.95,10.71-1.95,7.56,0,13.36,2.37,17.39,7.12s6.05,11.7,6.05,20.85v8.06c0,9.28-2.03,16.35-6.08,21.2-4.05,4.85-10.03,7.28-17.93,7.28Z"/>
    <path class="cls-1" d="M699.39,310.27v-11.91h48.58l-1.32,11.91h-47.25ZM730.7,360.73c-5.38,0-9.66-.8-12.85-2.39-3.19-1.6-5.48-4-6.87-7.21s-2.08-7.21-2.08-12v-35.47h15v33.39c0,3.65.84,6.34,2.52,8.06,1.68,1.72,4.58,2.58,8.69,2.58,2.48,0,4.86-.26,7.15-.79s4.38-1.23,6.27-2.11l-1.32,12.66c-2.18,1.05-4.67,1.86-7.47,2.42-2.79.57-5.81.85-9.04.85ZM709.09,299.55l-.06-16.7,15-1.57-.57,18.27h-14.36Z"/>
    <path class="cls-1" d="M780.66,360.92c-5.17,0-9.77-.5-13.8-1.51-4.03-1.01-7.43-2.12-10.21-3.34l-1.26-13.23c3.28,1.55,6.92,2.9,10.93,4.03,4.01,1.13,8.45,1.7,13.33,1.7,4.41,0,7.62-.56,9.64-1.67,2.02-1.11,3.02-2.8,3.02-5.07v-.38c0-1.51-.44-2.74-1.32-3.69-.88-.94-2.44-1.79-4.66-2.55-2.23-.76-5.36-1.51-9.39-2.27-5.46-1.13-9.77-2.51-12.92-4.13-3.15-1.62-5.41-3.61-6.77-5.99-1.37-2.37-2.05-5.26-2.05-8.66v-.5c0-5.8,2.1-10.16,6.3-13.1,4.2-2.94,10.44-4.41,18.71-4.41,5.08,0,9.57.5,13.45,1.51,3.88,1.01,7.11,2.19,9.67,3.53l1.39,12.1c-3.07-1.47-6.52-2.7-10.36-3.69-3.84-.99-8.03-1.48-12.57-1.48-2.9,0-5.22.23-6.96.69-1.74.46-2.99,1.13-3.75,2.02-.76.88-1.13,1.98-1.13,3.28v.31c0,1.35.41,2.51,1.23,3.5.82.99,2.28,1.86,4.38,2.61,2.1.76,5.1,1.53,9.01,2.33,5.5,1.01,9.91,2.24,13.23,3.69,3.32,1.45,5.73,3.33,7.25,5.64,1.51,2.31,2.27,5.38,2.27,9.2v.63c0,6.34-2.2,11.08-6.62,14.21-4.41,3.13-11.09,4.69-20.04,4.69Z"/>
  </g>
</svg>